<?xml version="1.0" encoding="utf-8" ?>
<svg baseProfile="tiny" height="100%" version="1.2" width="100%" xmlns="http://www.w3.org/2000/svg" xmlns:ev="http://www.w3.org/2001/xml-events" xmlns:xlink="http://www.w3.org/1999/xlink"><defs /><polyline fill="none" points="160,198 161,197 161,197 162,196 162,196 162,195 163,194 163,194 163,193 163,192 163,191 163,190 163,189 163,188 163,187 163,186 163,185 164,184 164,184 164,183 165,182 166,182 166,182 167,181 168,181 169,181 169,181 170,180 171,180 171,180 172,179 173,179 173,179 174,178 175,178 175,178 176,177 177,177 177,178 178,178 178,179 179,179 179,180 180,180 181,180 181,181 182,181 182,182 183,182 183,183 184,183 185,183 185,184 186,184 186,185 187,185 188,185 189,185 189,185 190,184 191,184 191,184 192,183 192,183 193,182 193,182 194,181 194,181 195,180 195,180 196,179 196,179 197,178 197,178 198,177 198,177 199,176 199,176 200,175 200,175 201,174 201,174 202,173 202,173 203,172 203,172 204,171 204,171 204,170 205,169 205,169 205,168 204,168 204,167 204,166 204,165 203,165 203,164 202,164 202,163 201,163 201,162 200,162 200,161 200,160 199,160 199,159 198,159 198,158 197,158 197,157 197,156 197,155 198,154 198,154 198,153 198,152 199,151 199,151 199,150 200,149 200,149 200,148 201,147 201,147 202,146 203,146 204,146 205,146 205,146 206,145 207,145 208,145 209,145 210,145 211,145 212,145 212,145 213,144 214,144 214,144 214,143 215,142 215,142 215,141 215,140 215,139 215,138 215,137 215,136 215,135 215,134 215,133 215,132 215,131 215,130 215,129 215,128 215,127 215,126 215,125 215,124 215,123 215,122 214,122 214,121 213,121 213,120 212,120 211,120 210,120 209,120 208,120 207,120 206,120 206,119 205,119 204,119 203,119 202,119 201,119 201,118 200,118 200,117 200,116 199,116 199,115 199,114 198,114 198,113 198,112 198,111 197,111 197,110 197,109 196,109 196,108 197,107 197,107 198,106 198,106 199,105 199,105 200,104 200,104 200,103 201,102 201,102 202,101 202,101 203,100 203,100 204,99 204,98 204,97 204,96 204,95 204,94 203,94 203,93 202,93 202,92 201,92 201,91 200,91 200,90 199,90 199,89 198,89 198,88 197,88 197,87 196,87 196,86 195,86 195,85 194,85 194,84 193,84 193,83 193,82 192,82 192,81 191,81 191,80 190,80 189,80 188,80 187,80 186,81 186,81 185,81 184,82 184,82 183,83 183,83 182,83 181,84 181,84 180,85 180,85 179,85 178,86 178,86 177,87 177,87 176,87 175,87 174,87 174,86 173,86 173,85 172,85 171,85 171,84 170,84 169,84 168,84 168,83 167,83 166,83 165,83 165,82 164,82 164,81 164,80 163,80 163,79 163,78 163,77 163,76 163,75 163,74 163,73 163,72 163,71 163,70 162,70 162,69 162,68 162,67 161,67 161,66 160,66 159,66 158,66 157,66 156,66 155,66 154,66 153,66 152,66 151,66 150,66 149,66 148,66 147,66 146,66 145,66 144,66 143,66 142,66 141,66 140,66 139,66 138,66 137,67 137,67 136,68 136,69 136,70 136,71 135,72 135,73 135,74 135,75 135,76 135,77 135,78 135,79 135,80 135,80 134,81 134,82 134,82 133,83 133,83 132,83 131,83 130,84 130,84 129,84 128,85 128,85 127,85 126,86 126,86 125,86 124,87 124,87 123,87 122,87 121,87 121,86 120,86 120,85 119,85 118,85 118,84 117,84 117,83 116,83 115,83 115,82 114,82 114,81 113,81 112,81 112,80 111,80 110,80 109,80 108,81 108,81 107,82 107,82 106,83 106,83 105,84 105,84 104,85 104,85 103,86 103,86 102,87 102,87 101,88 101,88 100,89 100,89 99,90 99,90 98,91 98,91 97,92 97,92 96,93 96,93 95,94 95,94 94,95 94,96 94,97 94,98 95,98 95,99 95,100 96,100 96,101 97,101 97,102 98,102 98,103 99,103 99,104 99,105 100,105 100,106 101,106 101,107 101,108 102,108 102,109 102,109 101,110 101,111 101,112 101,112 100,113 100,114 100,114 99,115 99,116 99,117 99,117 98,118 98,119 98,119 97,119 96,119 95,119 94,119 93,119 92,120 92,120 91,120 90,120 89,120 88,120 87,120 86,120 85,121 85,121 84,122 84,122 83,123 83,124 83,125 83,126 83,127 83,128 83,129 83,130 83,131 83,132 83,133 83,134 83,135 83,136 83,137 83,138 83,139 83,140 83,141 83,142 83,143 84,143 84,144 85,144 86,144 86,145 87,145 88,145 89,145 90,145 91,145 92,145 93,145 93,146 94,146 95,146 96,146 97,146 98,146 98,147 98,148 99,148 99,149 99,150 99,151 100,151 100,152 100,153 101,153 101,154 101,155 101,156 101,157 101,158 101,158 100,159 100,159 99,160 99,160 98,161 98,162 98,162 97,163 97,163 96,164 96,164 95,165 95,166 95,166 94,167 94,168 94,169 94,170 94,171 95,171 95,172 96,172 96,173 97,173 97,174 98,174 98,175 99,175 99,176 100,176 100,177 101,177 101,178 102,178 102,179 103,179 103,180 104,180 104,181 105,181 105,182 106,182 106,183 107,183 107,184 108,184 109,184 109,185 110,185 111,185 112,185 112,185 113,184 113,184 114,183 115,183 115,183 116,182 116,182 117,181 117,181 118,180 119,180 119,180 120,179 120,179 121,178 121,178 122,177 123,177 123,178 124,178 125,178 125,179 126,179 127,179 127,180 128,180 129,180 129,181 130,181 131,181 132,181 132,182 133,182 134,182 134,183 134,184 135,184 135,185 135,186 135,187 135,188 135,189 135,190 135,191 135,192 135,193 136,193 136,194 136,195 136,196 137,196 137,197 138,197 138,198 139,198 140,198 141,198 142,198 143,198 144,198 145,198 146,198 147,198 148,198 149,198 150,198 151,198 152,198 153,198 154,198 155,198 156,198 157,198 158,198 159,198 160,198 160,198" stroke="black" /><polyline fill="none" points="157,165 156,165 155,165 154,165 153,165 152,165 151,165 150,165 149,165 148,165 147,165 146,165 145,165 144,165 143,165 142,165 141,165 141,164 140,164 139,164 138,164 138,163 137,163 136,163 136,162 135,162 134,162 134,161 133,161 132,161 132,160 131,160 130,160 130,159 129,159 129,158 128,158 128,157 127,157 126,157 126,156 125,156 125,155 124,155 124,154 124,153 123,153 123,152 122,152 122,151 121,151 121,150 121,149 120,149 120,148 119,148 119,147 119,146 118,146 118,145 118,144 118,143 117,143 117,142 117,141 117,140 116,140 116,139 116,138 116,137 116,136 116,135 116,134 116,133 116,132 116,131 116,130 116,129 116,128 116,127 116,126 116,125 116,124 117,123 117,123 117,122 117,121 118,120 118,120 118,119 119,118 119,118 119,117 120,116 120,116 120,115 121,114 121,114 121,113 122,112 122,112 123,111 123,111 124,110 124,110 125,109 125,109 126,108 126,108 127,107 127,107 128,106 128,106 129,105 129,105 130,104 131,104 131,104 132,103 132,103 133,102 134,102 134,102 135,101 136,101 136,101 137,100 138,100 139,100 139,100 140,99 141,99 142,99 143,99 143,99 144,98 145,98 146,98 147,98 148,98 149,98 150,98 151,98 152,98 153,98 154,98 155,98 155,99 156,99 157,99 158,99 159,99 159,100 160,100 161,100 162,100 162,101 163,101 164,101 164,102 165,102 166,102 166,103 167,103 168,103 168,104 169,104 169,105 170,105 170,106 171,106 171,107 172,107 172,108 173,108 173,109 174,109 174,110 175,110 175,111 176,111 176,112 177,112 177,113 177,114 178,114 178,115 179,115 179,116 179,117 180,117 180,118 180,119 180,120 181,120 181,121 181,122 181,123 182,123 182,124 182,125 182,126 182,127 182,128 183,128 183,129 183,130 183,131 183,132 183,133 183,134 183,135 183,135 182,136 182,137 182,138 182,139 182,140 182,140 181,141 181,142 181,143 181,144 181,144 180,145 180,146 180,146 179,147 179,148 179,148 178,149 178,150 178,150 177,151 177,151 176,152 176,152 175,153 175,154 175,154 174,155 174,155 173,156 173,156 172,157 172,157 171,158 171,158 170,158 169,159 169,159 168,160 168,160 167,161 167,161 166,161 165,162 165,162 164,162 163,163 163,163 162,163 161,163 160,164 160,164 159,164 158,164 157,165 157,165" stroke="black" /><polyline fill="none" points="198,217 199,216 199,216 199,215 199,214 198,214 198,213 197,214 197,214 196,215 196,216 197,216 197,217 198,217 198,217" stroke="black" /><polyline fill="none" points="70,231 70,230 70,229 70,228 69,228 69,227 69,226 69,225 68,225 68,224 68,223 68,222 67,222 67,221 67,220 67,219 66,219 66,218 66,217 65,217 65,216 65,215 65,214 64,214 63,214 62,214 61,215 61,216 61,216 60,217 60,218 60,219 60,219 59,220 59,221 59,222 59,222 58,223 58,224 58,225 58,225 57,226 57,227 57,228 57,228 56,229 56,230 56,231 57,231 58,231 58,231 59,230 59,230 59,229 59,228 60,227 60,227 61,226 62,226 63,226 64,226 65,226 66,226 66,227 67,227 67,228 67,229 67,230 68,230 68,231 69,231 70,231 70,231" stroke="black" /><polyline fill="none" points="161,231 162,230 163,230 163,230 163,229 164,228 164,228 164,227 164,226 164,225 164,224 163,224 163,223 162,223 162,222 161,222 160,222 160,221 159,221 158,221 157,221 157,220 156,220 155,220 155,219 155,218 156,217 156,217 157,216 158,216 159,216 160,216 160,217 161,217 161,218 162,218 163,218 164,218 164,218 164,217 163,217 163,216 163,215 162,215 161,215 161,214 160,214 159,214 158,214 157,214 156,214 155,214 154,215 154,215 153,216 153,216 152,217 152,218 152,219 152,220 152,221 153,221 153,222 154,222 154,223 155,223 156,223 157,223 157,224 158,224 159,224 160,224 160,225 161,225 161,226 161,227 161,228 161,228 160,228 159,229 159,229 158,229 157,229 157,228 156,228 155,228 155,227 155,226 154,226 153,226 152,227 152,228 152,229 153,229 153,230 154,230 155,230 155,231 156,231 157,231 158,231 159,231 160,231 161,231 161,231" stroke="black" /><polyline fill="none" points="144,231 144,230 144,229 144,228 143,228 142,228 141,228 141,227 141,226 141,225 141,224 141,223 141,222 142,221 142,221 143,220 144,220 144,220 144,219 144,218 143,218 142,218 141,218 141,217 141,216 141,215 140,215 139,216 139,216 138,217 139,217 139,218 139,218 138,218 137,219 137,220 138,220 138,221 139,221 139,222 139,223 139,224 139,225 139,226 139,227 139,227 138,228 139,228 139,229 139,230 140,230 141,230 141,231 142,231 143,231 144,231 144,231" stroke="black" /><polyline fill="none" points="186,231 186,230 186,229 185,229 185,228 184,228 183,228 183,227 183,226 183,225 183,224 183,223 183,222 183,221 184,220 185,220 186,220 186,220 186,219 186,218 185,218 184,218 183,218 183,217 183,216 183,215 182,215 181,216 181,216 180,217 180,218 180,218 179,219 179,220 180,220 180,221 180,222 180,223 180,224 180,225 180,226 180,227 180,228 180,229 181,229 181,230 182,230 183,231 184,231 185,231 186,231 186,231" stroke="black" /><polyline fill="none" points="194,231 194,230 194,229 194,228 193,228 192,228 192,227 191,227 191,226 191,225 191,224 191,223 191,222 192,221 192,221 193,220 194,220 194,220 194,219 194,218 193,218 192,218 191,218 191,217 191,216 191,215 190,215 189,216 189,217 189,218 189,218 188,218 187,219 187,220 188,220 188,221 189,221 189,222 189,223 189,224 189,225 189,226 189,227 189,228 189,229 189,230 190,230 191,230 191,231 192,231 193,231 194,231 194,231" stroke="black" /><polyline fill="none" points="65,224 64,224 63,224 62,224 61,224 61,223 61,222 62,221 62,221 62,220 62,219 63,218 64,218 64,219 64,220 64,221 65,221 65,222 65,223 65,224 65,224" stroke="black" /><polyline fill="none" points="80,231 81,230 81,230 82,229 82,229 83,228 83,228 83,227 82,227 81,227 80,228 80,228 79,228 78,229 78,229 77,229 77,228 76,228 75,228 75,227 75,226 74,226 74,225 74,224 75,223 75,223 75,222 76,221 76,221 77,220 78,220 79,220 79,221 80,221 80,222 81,222 82,222 82,222 82,221 82,220 81,220 81,219 80,219 80,218 79,218 78,218 77,218 76,218 75,219 75,219 74,219 73,220 73,221 73,221 72,222 72,223 72,224 72,225 72,226 72,227 72,228 73,228 73,229 74,230 75,230 75,231 76,231 77,231 78,231 79,231 80,231 80,231" stroke="black" /><polyline fill="none" points="92,231 93,230 94,230 94,230 95,229 95,229 95,228 95,227 94,227 93,227 92,228 92,228 91,229 91,229 90,229 89,229 89,228 88,228 88,227 87,227 87,226 87,225 87,224 87,223 88,222 88,222 89,221 89,221 90,220 91,220 91,221 92,221 92,222 93,222 94,222 95,222 95,222 95,221 95,220 94,220 94,219 93,219 93,218 92,218 91,218 90,218 89,218 88,218 87,219 87,219 86,220 86,220 85,221 85,222 85,222 84,223 84,224 84,225 84,226 84,227 85,227 85,228 85,229 86,229 86,230 87,230 88,230 88,231 89,231 90,231 91,231 92,231 92,231" stroke="black" /><polyline fill="none" points="105,231 106,230 107,230 107,230 108,229 108,229 108,228 109,227 109,226 109,225 109,224 109,223 109,222 108,222 108,221 108,220 107,220 107,219 106,219 105,219 105,218 104,218 103,218 102,218 101,218 100,219 100,219 99,220 99,220 98,221 98,221 97,222 97,223 97,224 97,225 97,226 97,227 97,228 98,228 98,229 99,229 99,230 100,230 101,230 101,231 102,231 103,231 104,231 105,231 105,231" stroke="black" /><polyline fill="none" points="121,231 122,230 122,230 122,229 122,228 122,227 122,226 122,225 122,224 122,223 122,222 122,221 122,220 122,219 121,219 121,218 120,218 119,219 119,220 119,221 119,222 119,223 119,224 119,225 119,226 119,227 119,227 118,228 118,228 117,228 116,228 115,228 114,228 114,227 114,226 113,226 113,225 114,224 114,223 113,222 114,221 114,220 114,219 113,219 113,218 112,218 111,219 111,220 111,221 111,222 111,223 111,224 111,225 111,226 111,227 111,228 111,229 112,229 112,230 113,230 113,231 114,231 115,231 116,231 117,231 117,231 118,230 118,230 119,229 119,230 119,231 120,231 121,231 121,231" stroke="black" /><polyline fill="none" points="135,231 135,230 135,229 135,228 135,227 135,226 135,225 135,224 135,223 135,222 135,221 135,220 134,220 134,219 133,219 133,218 132,218 131,218 130,218 129,219 129,219 128,219 127,219 127,218 126,218 125,219 125,219 124,220 124,221 124,222 124,223 124,224 124,225 124,226 124,227 124,228 124,229 124,230 125,230 125,231 126,231 127,231 127,231 127,230 127,229 127,228 127,227 127,226 127,225 127,224 127,223 128,222 128,222 129,221 129,221 130,220 131,220 131,221 132,221 132,222 132,223 132,224 132,225 132,226 132,227 132,228 132,229 132,230 133,230 133,231 134,231 135,231 135,231" stroke="black" /><polyline fill="none" points="174,231 175,230 176,230 176,230 177,229 177,229 177,228 177,227 176,227 175,227 174,228 174,228 173,229 173,229 172,229 171,229 171,228 170,228 169,228 169,227 169,226 170,225 171,225 172,225 173,225 174,225 175,225 176,225 177,225 177,225 177,224 177,223 177,222 177,221 176,221 176,220 176,219 175,219 174,219 174,218 173,218 172,218 171,218 170,218 169,219 169,219 168,220 168,220 167,221 167,221 166,222 166,223 166,224 166,225 166,226 166,227 166,228 167,228 167,229 168,229 168,230 169,230 170,230 170,231 171,231 172,231 173,231 174,231 174,231" stroke="black" /><polyline fill="none" points="199,231 199,230 199,229 199,228 199,227 199,226 199,225 199,224 199,223 199,222 199,221 199,220 199,219 199,218 198,218 197,218 196,219 196,220 196,221 196,222 196,223 196,224 196,225 196,226 196,227 196,228 196,229 196,230 196,231 197,231 198,231 199,231 199,231" stroke="black" /><polyline fill="none" points="212,231 213,230 213,230 213,229 213,228 213,227 213,226 213,225 213,224 213,223 213,222 212,222 212,221 212,220 212,219 211,219 210,219 210,218 209,218 208,218 207,218 206,219 206,219 205,219 204,219 204,218 203,218 202,219 202,220 202,221 202,222 202,223 202,224 202,225 202,226 202,227 202,228 202,229 202,230 202,231 203,231 204,231 204,231 205,230 205,230 205,229 205,228 205,227 205,226 205,225 205,224 205,223 205,222 206,221 207,221 207,221 208,220 208,221 209,221 209,222 210,222 210,223 210,224 210,225 210,226 210,227 210,228 210,229 210,230 210,231 211,231 212,231 212,231" stroke="black" /><polyline fill="none" points="222,236 223,235 224,235 225,235 225,235 226,234 226,234 226,233 226,232 226,231 226,230 226,229 226,228 226,227 226,226 226,225 226,224 226,223 226,222 226,221 226,220 226,219 226,218 225,218 224,219 224,219 223,219 222,219 222,218 221,218 220,218 219,218 218,219 218,219 217,219 216,220 216,221 216,221 215,222 215,223 215,224 215,225 215,226 215,227 215,228 216,228 216,229 217,229 217,230 218,230 219,230 220,230 221,230 222,230 223,230 223,230 224,229 224,230 224,231 224,232 224,232 223,233 223,233 222,233 221,233 220,233 219,233 218,233 218,232 217,232 216,232 215,233 216,233 216,234 217,234 217,235 218,235 219,235 220,235 220,236 221,236 222,236 222,236" stroke="black" /><polyline fill="none" points="236,231 237,230 238,230 238,230 239,229 239,229 239,228 239,227 239,226 239,225 238,225 238,224 237,224 236,224 236,223 235,223 234,223 233,223 232,223 232,222 232,221 233,220 234,220 235,220 235,221 236,221 236,222 237,222 238,222 238,222 239,221 239,221 239,220 238,220 238,219 237,219 237,218 236,218 235,218 234,218 233,218 232,218 231,219 231,219 230,220 230,220 229,221 229,222 229,223 229,224 230,224 230,225 231,225 232,225 233,225 233,226 234,226 235,226 236,226 236,227 236,228 236,228 235,229 235,229 234,229 233,229 233,228 232,228 232,227 231,227 230,227 229,228 229,229 230,229 230,230 231,230 231,231 232,231 233,231 234,231 235,231 236,231 236,231" stroke="black" /><polyline fill="none" points="104,229 103,229 102,229 102,228 101,228 101,227 100,227 100,226 100,225 100,224 100,223 100,222 101,221 102,221 102,221 103,220 104,220 104,221 105,221 105,222 106,222 106,223 106,224 106,225 106,226 106,227 106,227 105,228 105,228 104,229 104,229" stroke="black" /><polyline fill="none" points="175,223 174,223 173,223 172,223 171,223 170,223 169,223 169,222 170,221 170,221 171,220 172,220 173,220 173,221 174,221 174,222 175,222 175,223 175,223" stroke="black" /><polyline fill="none" points="222,228 221,228 220,228 219,228 219,227 218,227 218,226 218,225 218,224 218,223 218,222 219,221 220,221 220,221 221,220 222,220 222,221 223,221 223,222 224,222 224,223 224,224 224,225 224,226 224,226 223,227 223,227 222,228 222,228" stroke="black" /></svg>