<?xml version="1.0" encoding="utf-8" ?>
<svg baseProfile="tiny" height="100%" version="1.2" width="100%" xmlns="http://www.w3.org/2000/svg" xmlns:ev="http://www.w3.org/2001/xml-events" xmlns:xlink="http://www.w3.org/1999/xlink"><defs /><polyline fill="none" points="70,166 71,165 72,165 72,165 73,164 73,164 73,163 74,162 74,162 74,161 74,160 74,159 74,158 74,157 74,156 74,155 74,154 74,153 74,152 74,151 74,150 74,149 74,148 74,147 74,146 74,145 74,144 74,143 74,142 74,141 74,140 74,139 74,138 74,137 74,136 74,135 74,134 73,134 73,133 72,133 72,132 71,132 71,131 70,131 70,130 69,130 68,130 67,130 66,130 65,130 64,130 63,130 62,130 61,130 60,130 60,129 60,128 60,127 60,126 60,125 59,125 59,124 59,123 58,123 58,122 57,122 56,122 56,121 55,121 54,121 53,121 52,121 51,121 50,121 49,121 48,121 47,121 46,121 45,121 44,121 43,121 42,121 41,121 40,121 39,121 38,122 38,122 37,122 36,123 36,123 35,124 35,125 35,125 34,126 34,127 34,128 34,129 34,130 34,130 33,130 32,130 31,130 30,130 29,130 28,130 27,130 26,130 25,130 24,131 24,131 23,132 23,132 22,133 22,133 21,134 21,134 20,135 20,136 20,137 20,138 20,139 20,140 20,141 20,142 20,143 20,144 20,145 20,146 20,147 20,148 20,149 20,150 20,151 20,152 20,153 20,154 20,155 20,156 20,157 20,158 20,159 20,160 20,161 20,162 21,162 21,163 21,164 22,164 22,165 23,165 24,165 24,166 25,166 26,166 27,166 28,166 29,166 30,166 31,166 32,166 33,166 34,166 35,166 36,166 37,166 38,166 39,166 40,166 41,166 42,166 43,166 44,166 45,166 46,166 47,166 48,166 49,166 50,166 51,166 52,166 53,166 54,166 55,166 56,166 57,166 58,166 59,166 60,166 61,166 62,166 63,166 64,166 65,166 66,166 67,166 68,166 69,166 70,166 70,166" stroke="black" /><polyline fill="none" points="56,130 55,130 54,130 53,130 52,130 51,130 50,130 49,130 48,130 47,130 46,130 45,130 44,130 43,130 42,130 41,130 40,130 39,130 38,130 38,129 38,128 38,127 39,126 39,126 40,125 41,125 42,125 43,125 44,125 45,125 46,125 47,125 48,125 49,125 50,125 51,125 52,125 53,125 54,125 55,125 55,126 56,126 56,127 56,128 56,129 56,130 56,130" stroke="black" /><polyline fill="none" points="96,157 97,156 98,156 98,156 99,155 99,155 100,154 100,154 101,153 101,153 101,152 101,151 102,150 102,150 102,149 102,148 102,147 102,146 102,145 102,144 102,143 102,142 102,141 102,140 102,139 102,138 102,137 102,136 102,135 102,134 102,133 102,132 101,132 100,132 99,132 98,132 97,133 97,134 97,135 97,136 97,137 97,138 97,139 97,140 97,141 97,142 97,143 97,144 97,145 97,146 97,147 97,148 97,149 97,150 97,150 96,151 96,152 96,152 95,152 94,153 94,153 93,153 92,153 92,152 91,152 91,151 90,151 90,150 90,149 90,148 89,148 88,148 87,148 86,148 85,149 85,150 85,151 85,152 85,153 86,153 86,154 86,155 87,155 88,155 88,156 89,156 90,156 90,157 91,157 92,157 93,157 94,157 95,157 96,157 96,157" stroke="black" /><polyline fill="none" points="120,157 121,156 122,156 122,156 123,155 124,155 124,155 125,154 125,154 125,153 126,152 126,152 126,151 127,150 127,150 127,149 127,148 127,147 127,146 127,145 127,144 127,143 127,142 127,141 127,140 126,140 126,139 126,138 126,137 125,137 125,136 125,135 124,135 124,134 123,134 123,133 122,133 121,133 120,133 120,132 119,132 118,132 117,132 116,132 115,132 114,132 113,133 113,133 112,133 111,134 111,134 110,134 109,135 109,135 108,136 108,137 108,137 107,138 107,139 107,140 107,140 106,141 106,142 106,143 106,144 106,145 106,146 106,147 106,148 106,149 107,149 107,150 107,151 107,152 108,152 108,153 108,154 109,154 109,155 110,155 111,155 111,156 112,156 113,156 113,157 114,157 115,157 116,157 117,157 118,157 119,157 120,157 120,157" stroke="black" /><polyline fill="none" points="143,157 144,156 145,156 146,156 147,156 147,156 148,155 148,155 149,154 149,154 150,153 150,153 150,152 150,151 150,150 150,149 150,148 150,147 149,147 149,146 149,145 148,145 148,144 147,144 148,143 148,143 149,142 149,142 149,141 149,140 150,139 150,139 150,138 149,138 149,137 149,136 149,135 148,135 148,134 147,134 146,134 146,133 145,133 144,133 143,133 142,133 142,132 141,132 140,132 139,132 138,132 137,132 136,132 135,132 134,132 133,132 132,133 132,134 132,135 132,136 132,137 132,138 132,139 132,140 132,141 132,142 132,143 132,144 132,145 132,146 132,147 132,148 132,149 132,150 132,151 132,152 132,153 132,154 132,155 132,156 132,157 133,157 134,157 135,157 136,157 137,157 138,157 139,157 140,157 141,157 142,157 143,157 143,157" stroke="black" /><polyline fill="none" points="173,157 173,156 173,155 173,154 173,153 173,152 173,151 173,150 173,149 173,148 173,147 173,146 173,145 173,144 173,143 173,142 173,141 173,140 173,139 173,138 173,137 173,136 173,135 173,134 173,133 173,132 172,132 171,132 170,132 169,132 168,133 168,134 168,135 168,136 168,137 168,138 168,139 168,140 168,141 168,142 168,142 167,142 166,142 165,142 164,142 163,142 162,142 161,142 160,142 159,142 159,141 159,140 159,139 159,138 159,137 159,136 159,135 159,134 159,133 159,132 158,132 157,132 156,132 155,133 155,133 154,134 154,135 154,136 154,137 154,138 154,139 154,140 154,141 154,142 154,143 154,144 154,145 154,146 154,147 154,148 154,149 154,150 154,151 154,152 154,153 154,154 154,155 154,156 155,156 155,157 156,157 157,157 158,157 159,157 159,157 159,156 159,155 159,154 159,153 159,152 159,151 159,150 159,149 159,148 159,147 160,146 161,146 162,146 163,146 164,146 165,146 166,146 167,146 168,146 168,147 168,148 168,149 168,150 168,151 168,152 168,153 168,154 168,155 168,156 168,157 169,157 170,157 171,157 172,157 173,157 173,157" stroke="black" /><polyline fill="none" points="198,157 199,156 199,156 199,155 198,155 198,154 198,153 198,152 197,152 197,151 197,150 197,149 196,149 196,148 196,147 196,146 195,146 195,145 195,144 195,143 194,143 194,142 194,141 194,140 193,140 193,139 193,138 193,137 193,136 192,136 192,135 192,134 192,133 191,133 191,132 190,132 189,132 188,132 187,132 186,132 185,133 185,133 184,134 184,135 184,135 183,136 183,137 183,138 183,138 182,139 182,140 182,141 182,141 181,142 181,143 181,144 181,144 180,145 180,146 180,147 180,147 179,148 179,149 179,150 179,150 178,151 178,152 178,153 178,154 178,154 177,155 177,156 177,157 178,157 179,157 180,157 181,157 181,157 182,156 182,156 182,155 183,154 183,154 183,153 183,152 184,151 185,151 186,151 187,151 188,151 189,151 190,151 191,151 192,151 192,152 192,153 193,153 193,154 193,155 193,156 194,156 194,157 195,157 196,157 197,157 198,157 198,157" stroke="black" /><polyline fill="none" points="214,157 215,156 216,156 217,156 217,156 218,155 218,155 219,154 219,154 219,153 220,152 220,152 220,151 221,150 221,150 221,149 220,149 219,149 218,149 217,149 216,149 215,150 215,151 215,151 214,152 214,152 213,152 212,153 212,153 211,153 210,153 209,153 209,152 208,152 207,152 207,151 207,150 206,150 206,149 206,148 206,147 205,147 205,146 205,145 205,144 205,143 206,142 206,142 206,141 206,140 207,139 207,139 207,138 208,137 209,137 209,137 210,136 211,136 212,136 212,137 213,137 214,137 214,138 215,138 215,139 215,140 216,140 217,141 218,140 219,141 220,141 220,141 221,140 221,140 221,139 220,139 220,138 220,137 219,137 219,136 219,135 218,135 218,134 217,134 216,134 216,133 215,133 214,133 214,132 213,132 212,132 211,132 210,132 209,132 208,132 207,133 207,133 206,133 205,134 205,134 204,135 204,135 203,136 203,136 202,137 202,138 202,138 201,139 201,140 201,141 201,141 200,142 200,143 200,144 200,145 200,146 200,147 200,148 201,148 201,149 201,150 201,151 201,152 202,152 202,153 203,153 203,154 204,154 204,155 205,155 205,156 206,156 207,156 207,157 208,157 209,157 210,157 211,157 212,157 213,157 214,157 214,157" stroke="black" /><polyline fill="none" points="245,157 245,156 244,156 244,155 244,154 243,154 243,153 242,153 242,152 242,151 241,151 241,150 240,150 240,149 239,149 239,148 239,147 238,147 238,146 237,146 237,145 237,144 236,144 237,143 237,143 238,142 238,141 239,140 239,140 240,139 240,139 241,138 241,138 241,137 242,136 242,136 243,135 243,135 244,134 244,134 244,133 244,132 243,132 242,132 241,132 240,132 239,132 238,133 238,134 238,134 237,135 237,135 236,136 236,136 235,137 235,137 234,138 234,139 234,139 233,140 233,140 232,141 232,141 231,142 231,142 230,142 230,141 230,140 230,139 230,138 230,137 230,136 230,135 230,134 230,133 230,132 229,132 228,132 227,132 226,132 225,133 225,134 225,135 225,136 225,137 225,138 225,139 225,140 225,141 225,142 225,143 225,144 225,145 225,146 225,147 225,148 225,149 225,150 225,151 225,152 225,153 225,154 225,155 225,156 225,157 226,157 227,157 228,157 229,157 230,157 230,157 230,156 230,155 230,154 230,153 230,152 230,151 230,150 230,149 230,148 231,147 232,147 233,147 233,148 233,149 234,149 234,150 235,150 235,151 236,151 236,152 236,153 237,153 237,154 238,154 238,155 238,156 239,156 239,157 240,157 241,157 242,157 243,157 244,157 245,157 245,157" stroke="black" /><polyline fill="none" points="269,157 269,156 269,155 269,154 268,154 268,153 268,152 268,151 267,151 267,150 267,149 267,148 266,148 266,147 266,146 266,145 265,144 265,143 265,142 265,141 264,141 264,140 264,139 264,138 263,138 263,137 263,136 263,135 262,135 262,134 262,133 262,132 261,132 260,132 259,132 258,132 257,132 256,132 255,133 255,134 255,134 254,135 254,136 254,137 254,137 253,138 253,139 253,140 253,140 252,141 252,142 252,143 252,143 251,144 251,145 251,146 251,146 250,147 250,148 250,149 250,149 249,150 249,151 249,152 249,152 248,153 248,154 248,155 248,155 247,156 247,157 248,157 249,157 250,157 251,157 252,157 252,157 252,156 253,155 253,155 253,154 253,153 254,152 254,152 255,151 256,151 257,151 258,151 259,151 260,151 261,151 262,151 263,151 263,152 263,153 263,154 264,154 264,155 264,156 264,157 265,157 266,157 267,157 268,157 269,157 269,157" stroke="black" /><polyline fill="none" points="277,157 278,156 278,156 278,155 278,154 278,153 278,152 278,151 278,150 278,149 278,148 278,147 278,146 278,145 278,144 278,143 278,142 278,141 278,140 278,139 278,138 278,137 278,136 278,135 278,134 278,133 277,133 277,132 276,132 275,132 274,132 273,133 273,134 273,135 273,136 273,137 273,138 273,139 273,140 273,141 273,142 273,143 273,144 273,145 273,146 273,147 273,148 273,149 273,150 273,151 273,152 273,153 273,154 273,155 273,156 273,157 274,157 275,157 276,157 277,157 277,157" stroke="black" /><polyline fill="none" points="69,162 68,162 67,162 66,162 65,162 64,162 63,162 62,162 61,162 60,162 59,162 58,162 57,162 56,162 55,162 54,162 53,162 52,162 51,162 50,162 49,162 48,162 47,162 46,162 45,162 44,162 43,162 42,162 41,162 40,162 39,162 38,162 37,162 36,162 35,162 34,162 33,162 32,162 31,162 30,162 29,162 28,162 27,162 26,162 25,162 25,161 24,161 24,160 23,160 23,159 23,158 23,157 23,156 23,155 23,154 23,153 23,152 23,151 23,150 23,149 23,148 23,147 23,146 23,145 23,144 23,143 23,142 23,141 23,140 23,139 23,138 23,137 24,136 24,136 25,135 25,135 26,134 27,134 28,134 29,134 30,134 31,134 32,134 33,134 34,134 35,134 36,134 37,134 38,134 39,134 40,134 41,134 42,134 43,134 44,134 45,134 46,134 47,134 48,134 49,134 50,134 51,134 52,134 53,134 54,134 55,134 56,134 57,134 58,134 59,134 60,134 61,134 62,134 63,134 64,134 65,134 66,134 67,134 68,134 69,134 69,135 70,135 70,136 70,137 70,138 70,139 70,140 70,141 70,142 70,143 70,144 70,145 70,146 70,147 70,148 70,149 70,150 70,151 70,152 70,153 70,154 70,155 70,156 70,157 70,158 70,159 70,160 70,161 70,161 69,162 69,162" stroke="black" /><polyline fill="none" points="118,153 117,153 116,153 115,153 115,152 114,152 113,152 113,151 112,151 112,150 112,149 111,149 111,148 111,147 111,146 111,145 111,144 111,143 111,142 111,141 112,140 112,140 112,139 113,138 113,138 114,137 115,137 115,137 116,136 117,136 118,136 118,137 119,137 120,137 120,138 121,138 121,139 121,140 122,140 122,141 122,142 122,143 122,144 122,145 122,146 122,147 122,148 122,149 122,149 121,150 121,151 121,151 120,152 120,152 119,152 118,153 118,153" stroke="black" /><polyline fill="none" points="142,142 141,142 140,142 139,142 138,142 137,142 137,141 137,140 137,139 137,138 137,137 138,136 139,136 140,136 141,136 141,137 142,137 143,137 143,138 144,138 144,139 144,140 144,141 144,141 143,141 142,142 142,142" stroke="black" /><polyline fill="none" points="190,146 189,146 188,146 187,146 186,146 185,146 185,145 186,144 186,144 186,143 186,142 187,141 187,141 187,140 187,139 188,138 188,139 188,140 189,140 189,141 189,142 189,143 190,143 190,144 190,145 190,146 190,146" stroke="black" /><polyline fill="none" points="261,146 260,146 259,146 258,146 257,146 256,146 256,145 256,144 257,143 257,143 257,142 257,141 257,140 258,139 258,139 259,138 259,139 259,140 259,141 260,141 260,142 260,143 260,144 261,144 261,145 261,146 261,146" stroke="black" /><polyline fill="none" points="141,153 140,153 139,153 138,153 137,153 137,152 137,151 137,150 137,149 137,148 137,147 138,146 139,146 140,146 141,146 142,146 142,147 143,147 144,147 144,148 144,149 144,150 144,151 144,151 143,152 143,152 142,152 141,153 141,153" stroke="black" /></svg>